<svg width="510" height="89" viewBox="0 0 510 89" fill="none" xmlns="http://www.w3.org/2000/svg">
<path d="M79.904 76L80.864 24.16H87.968L97.12 66.208L106.336 24.16H113.376L114.336 76H108.512L107.936 38.368L99.168 76H95.072L86.368 38.368L85.792 76H79.904ZM131.882 76.512C129.151 76.512 126.997 75.9573 125.418 74.848C123.839 73.7387 122.709 72.16 122.026 70.112C121.386 68.064 121.066 65.6533 121.066 62.88V52.128C121.066 49.3547 121.386 46.944 122.026 44.896C122.709 42.848 123.839 41.2693 125.418 40.16C126.997 39.0507 129.151 38.496 131.882 38.496C134.613 38.496 136.746 39.0507 138.282 40.16C139.861 41.2693 140.97 42.848 141.61 44.896C142.293 46.944 142.634 49.3547 142.634 52.128V62.88C142.634 65.6533 142.293 68.064 141.61 70.112C140.97 72.16 139.861 73.7387 138.282 74.848C136.746 75.9573 134.613 76.512 131.882 76.512ZM131.882 71.456C133.205 71.456 134.122 71.072 134.634 70.304C135.189 69.536 135.509 68.5333 135.594 67.296C135.722 66.016 135.786 64.6933 135.786 63.328V51.744C135.786 50.336 135.722 49.0133 135.594 47.776C135.509 46.5387 135.189 45.536 134.634 44.768C134.122 43.9573 133.205 43.552 131.882 43.552C130.559 43.552 129.621 43.9573 129.066 44.768C128.511 45.536 128.17 46.5387 128.042 47.776C127.957 49.0133 127.914 50.336 127.914 51.744V63.328C127.914 64.6933 127.957 66.016 128.042 67.296C128.17 68.5333 128.511 69.536 129.066 70.304C129.621 71.072 130.559 71.456 131.882 71.456ZM153.694 76L146.398 39.008H153.31L157.854 68.768L162.462 39.008H169.118L162.078 76H153.694ZM173.967 76V39.008H180.815V76H173.967ZM173.967 33.504V26.336H180.815V33.504H173.967ZM198.384 76.512C195.482 76.512 193.242 75.9573 191.664 74.848C190.085 73.696 188.976 72.032 188.336 69.856C187.738 67.6373 187.44 64.928 187.44 61.728V53.28C187.44 49.9947 187.76 47.264 188.4 45.088C189.04 42.912 190.149 41.2693 191.728 40.16C193.349 39.0507 195.568 38.496 198.384 38.496C201.498 38.496 203.781 39.136 205.232 40.416C206.725 41.696 207.706 43.552 208.176 45.984C208.645 48.3733 208.88 51.2533 208.88 54.624V57.632H194.288V65.056C194.288 66.5493 194.416 67.7653 194.672 68.704C194.97 69.6427 195.418 70.3467 196.016 70.816C196.656 71.2427 197.466 71.456 198.448 71.456C199.472 71.456 200.24 71.2213 200.752 70.752C201.306 70.24 201.669 69.536 201.84 68.64C202.053 67.7013 202.16 66.6133 202.16 65.376V63.136H208.816V64.544C208.816 68.256 208.026 71.1787 206.448 73.312C204.869 75.4453 202.181 76.512 198.384 76.512ZM194.288 53.92H202.16V50.592C202.16 49.056 202.074 47.776 201.904 46.752C201.733 45.6853 201.37 44.896 200.816 44.384C200.304 43.8293 199.472 43.552 198.32 43.552C197.21 43.552 196.357 43.808 195.76 44.32C195.205 44.832 194.821 45.7067 194.608 46.944C194.394 48.1387 194.288 49.8027 194.288 51.936V53.92ZM242.506 76.576C239.519 76.576 237.023 75.936 235.018 74.656C233.055 73.376 231.562 71.6053 230.538 69.344C229.514 67.0827 228.917 64.4587 228.746 61.472L235.146 59.744C235.274 61.5787 235.551 63.3493 235.978 65.056C236.447 66.7627 237.194 68.1707 238.218 69.28C239.242 70.3467 240.671 70.88 242.506 70.88C244.383 70.88 245.791 70.368 246.73 69.344C247.711 68.2773 248.202 66.7627 248.202 64.8C248.202 62.4533 247.669 60.576 246.602 59.168C245.535 57.7173 244.191 56.2667 242.57 54.816L233.866 47.136C232.159 45.6427 230.901 44.0213 230.09 42.272C229.279 40.48 228.874 38.2827 228.874 35.68C228.874 31.8827 229.962 28.9387 232.138 26.848C234.314 24.7573 237.279 23.712 241.034 23.712C243.082 23.712 244.874 23.9893 246.41 24.544C247.989 25.056 249.29 25.8667 250.314 26.976C251.381 28.0853 252.213 29.4933 252.81 31.2C253.45 32.864 253.877 34.8267 254.09 37.088L247.946 38.752C247.818 37.0453 247.562 35.488 247.178 34.08C246.794 32.6293 246.111 31.4773 245.13 30.624C244.191 29.728 242.826 29.28 241.034 29.28C239.242 29.28 237.834 29.7707 236.81 30.752C235.829 31.6907 235.338 33.0987 235.338 34.976C235.338 36.5547 235.594 37.856 236.106 38.88C236.661 39.904 237.535 40.9493 238.73 42.016L247.498 49.696C249.461 51.4027 251.189 53.4507 252.682 55.84C254.175 58.1867 254.922 60.9813 254.922 64.224C254.922 66.784 254.389 69.0027 253.322 70.88C252.255 72.7147 250.783 74.1227 248.906 75.104C247.071 76.0853 244.938 76.576 242.506 76.576ZM270.196 76.512C267.295 76.512 265.055 75.9573 263.476 74.848C261.897 73.696 260.788 72.032 260.148 69.856C259.551 67.6373 259.252 64.928 259.252 61.728V53.28C259.252 49.9947 259.572 47.264 260.212 45.088C260.852 42.912 261.961 41.2693 263.54 40.16C265.161 39.0507 267.38 38.496 270.196 38.496C273.311 38.496 275.593 39.136 277.044 40.416C278.537 41.696 279.519 43.552 279.988 45.984C280.457 48.3733 280.692 51.2533 280.692 54.624V57.632H266.1V65.056C266.1 66.5493 266.228 67.7653 266.484 68.704C266.783 69.6427 267.231 70.3467 267.828 70.816C268.468 71.2427 269.279 71.456 270.26 71.456C271.284 71.456 272.052 71.2213 272.564 70.752C273.119 70.24 273.481 69.536 273.652 68.64C273.865 67.7013 273.972 66.6133 273.972 65.376V63.136H280.628V64.544C280.628 68.256 279.839 71.1787 278.26 73.312C276.681 75.4453 273.993 76.512 270.196 76.512ZM266.1 53.92H273.972V50.592C273.972 49.056 273.887 47.776 273.716 46.752C273.545 45.6853 273.183 44.896 272.628 44.384C272.116 43.8293 271.284 43.552 270.132 43.552C269.023 43.552 268.169 43.808 267.572 44.32C267.017 44.832 266.633 45.7067 266.42 46.944C266.207 48.1387 266.1 49.8027 266.1 51.936V53.92ZM293.55 76.512C292.099 76.512 290.819 76.1067 289.71 75.296C288.6 74.4427 287.726 73.376 287.086 72.096C286.446 70.7733 286.126 69.3867 286.126 67.936C286.126 65.632 286.51 63.6907 287.278 62.112C288.046 60.5333 289.091 59.2107 290.414 58.144C291.779 57.0347 293.336 56.0747 295.086 55.264C296.878 54.4533 298.755 53.664 300.718 52.896V50.272C300.718 48.7787 300.632 47.5413 300.462 46.56C300.291 45.5787 299.928 44.8533 299.374 44.384C298.862 43.872 298.072 43.616 297.006 43.616C296.067 43.616 295.299 43.8293 294.702 44.256C294.147 44.6827 293.742 45.3013 293.486 46.112C293.23 46.88 293.102 47.7973 293.102 48.864V50.72L286.318 50.464C286.403 46.368 287.342 43.36 289.134 41.44C290.926 39.4773 293.699 38.496 297.454 38.496C301.123 38.496 303.726 39.4987 305.262 41.504C306.798 43.5093 307.566 46.4107 307.566 50.208V67.104C307.566 68.256 307.587 69.3653 307.63 70.432C307.715 71.4987 307.8 72.5013 307.886 73.44C308.014 74.336 308.12 75.1893 308.206 76H301.934C301.806 75.3173 301.635 74.464 301.422 73.44C301.251 72.3733 301.123 71.4133 301.038 70.56C300.611 72.0107 299.779 73.376 298.542 74.656C297.347 75.8933 295.683 76.512 293.55 76.512ZM296.238 70.624C296.92 70.624 297.56 70.432 298.158 70.048C298.755 69.664 299.288 69.2373 299.758 68.768C300.227 68.256 300.547 67.8507 300.718 67.552V57.056C299.651 57.6533 298.648 58.2507 297.71 58.848C296.771 59.4453 295.939 60.0853 295.214 60.768C294.531 61.408 293.976 62.1547 293.55 63.008C293.166 63.8187 292.974 64.7573 292.974 65.824C292.974 67.3173 293.251 68.4907 293.806 69.344C294.36 70.1973 295.171 70.624 296.238 70.624ZM314.336 76V39.008H321.184V44.256C322.549 41.9947 323.914 40.48 325.28 39.712C326.645 38.944 328.01 38.56 329.376 38.56C329.546 38.56 329.696 38.56 329.824 38.56C329.994 38.56 330.208 38.5813 330.464 38.624V46.176C329.952 45.9627 329.354 45.792 328.672 45.664C328.032 45.4933 327.37 45.408 326.688 45.408C325.621 45.408 324.64 45.664 323.744 46.176C322.89 46.6453 322.037 47.584 321.184 48.992V76H314.336ZM344.818 76.512C341.789 76.512 339.485 75.9147 337.906 74.72C336.37 73.4827 335.325 71.7547 334.77 69.536C334.258 67.3173 334.002 64.736 334.002 61.792V53.28C334.002 50.1653 334.279 47.52 334.834 45.344C335.389 43.1253 336.434 41.44 337.97 40.288C339.549 39.0933 341.831 38.496 344.818 38.496C347.506 38.496 349.575 38.944 351.026 39.84C352.519 40.6933 353.543 41.9947 354.098 43.744C354.653 45.4507 354.93 47.584 354.93 50.144V52.32H348.722V50.08C348.722 48.4587 348.615 47.1787 348.402 46.24C348.189 45.3013 347.805 44.6187 347.25 44.192C346.695 43.7653 345.906 43.552 344.882 43.552C343.773 43.552 342.919 43.808 342.322 44.32C341.725 44.832 341.319 45.7067 341.106 46.944C340.935 48.1387 340.85 49.7813 340.85 51.872V63.52C340.85 66.6773 341.149 68.7893 341.746 69.856C342.343 70.9227 343.41 71.456 344.946 71.456C346.098 71.456 346.93 71.2 347.442 70.688C347.997 70.1333 348.338 69.3653 348.466 68.384C348.637 67.4027 348.722 66.2933 348.722 65.056V62.048H354.93V64.608C354.93 67.0827 354.631 69.216 354.034 71.008C353.479 72.8 352.455 74.1653 350.962 75.104C349.511 76.0427 347.463 76.512 344.818 76.512ZM361.211 76V24.16H368.059V42.848C369.296 41.6533 370.683 40.6293 372.219 39.776C373.755 38.9227 375.461 38.496 377.339 38.496C378.789 38.496 379.899 38.88 380.667 39.648C381.477 40.416 382.032 41.376 382.331 42.528C382.672 43.68 382.843 44.8533 382.843 46.048V76H375.995V48.032C375.995 46.7093 375.803 45.6853 375.419 44.96C375.035 44.2347 374.245 43.872 373.051 43.872C372.24 43.872 371.387 44.1067 370.491 44.576C369.637 45.0453 368.827 45.6213 368.059 46.304V76H361.211ZM399.759 76.512C396.857 76.512 394.617 75.9573 393.039 74.848C391.46 73.696 390.351 72.032 389.711 69.856C389.113 67.6373 388.815 64.928 388.815 61.728V53.28C388.815 49.9947 389.135 47.264 389.775 45.088C390.415 42.912 391.524 41.2693 393.103 40.16C394.724 39.0507 396.943 38.496 399.759 38.496C402.873 38.496 405.156 39.136 406.607 40.416C408.1 41.696 409.081 43.552 409.551 45.984C410.02 48.3733 410.255 51.2533 410.255 54.624V57.632H395.663V65.056C395.663 66.5493 395.791 67.7653 396.047 68.704C396.345 69.6427 396.793 70.3467 397.391 70.816C398.031 71.2427 398.841 71.456 399.823 71.456C400.847 71.456 401.615 71.2213 402.127 70.752C402.681 70.24 403.044 69.536 403.215 68.64C403.428 67.7013 403.535 66.6133 403.535 65.376V63.136H410.191V64.544C410.191 68.256 409.401 71.1787 407.823 73.312C406.244 75.4453 403.556 76.512 399.759 76.512ZM395.663 53.92H403.535V50.592C403.535 49.056 403.449 47.776 403.279 46.752C403.108 45.6853 402.745 44.896 402.191 44.384C401.679 43.8293 400.847 43.552 399.695 43.552C398.585 43.552 397.732 43.808 397.135 44.32C396.58 44.832 396.196 45.7067 395.983 46.944C395.769 48.1387 395.663 49.8027 395.663 51.936V53.92ZM416.648 76V39.008H423.496V44.256C424.861 41.9947 426.227 40.48 427.592 39.712C428.957 38.944 430.323 38.56 431.688 38.56C431.859 38.56 432.008 38.56 432.136 38.56C432.307 38.56 432.52 38.5813 432.776 38.624V46.176C432.264 45.9627 431.667 45.792 430.984 45.664C430.344 45.4933 429.683 45.408 429 45.408C427.933 45.408 426.952 45.664 426.056 46.176C425.203 46.6453 424.349 47.584 423.496 48.992V76H416.648Z" fill="white"/>
<path d="M54 35H10C8.93913 35 7.92172 35.4214 7.17157 36.1716C6.42143 36.9217 6 37.9391 6 39V75C6 76.0609 6.42143 77.0783 7.17157 77.8284C7.92172 78.5786 8.93913 79 10 79H54C55.0609 79 56.0783 78.5786 56.8284 77.8284C57.5786 77.0783 58 76.0609 58 75V39C58 37.9391 57.5786 36.9217 56.8284 36.1716C56.0783 35.4214 55.0609 35 54 35ZM46 39H54V43H46V39ZM34 39H42V43H34V39ZM22 39H30V43H22V39ZM18 75H10V71H18V75ZM18 43H10V39H18V43ZM22 75V71.325H30V75H22ZM34 75V71.325H42V75H34ZM54 75H46V71.325H48.3V71H54V75Z" fill="white"/>
<path d="M500 35H456C454.939 35 453.922 35.4214 453.172 36.1716C452.421 36.9217 452 37.9391 452 39V75C452 76.0609 452.421 77.0783 453.172 77.8284C453.922 78.5786 454.939 79 456 79H500C501.061 79 502.078 78.5786 502.828 77.8284C503.579 77.0783 504 76.0609 504 75V39C504 37.9391 503.579 36.9217 502.828 36.1716C502.078 35.4214 501.061 35 500 35ZM492 39H500V43H492V39ZM480 39H488V43H480V39ZM468 39H476V43H468V39ZM464 75H456V71H464V75ZM464 43H456V39H464V43ZM468 75V71.325H476V75H468ZM480 75V71.325H488V75H480ZM500 75H492V71.325H494.3V71H500V75Z" fill="white"/>
</svg>
